<svg xmlns="http://www.w3.org/2000/svg" width="100" height="100" viewBox="0 0 24 24">
  <g fill="none" fill-rule="evenodd">
    <rect width="32" height="32" fill="#D8D8D8" opacity="0"/>
    <path fill="#007AF5" fill-rule="nonzero" d="M11.1414214,18.4429008 L12.2727982,19.5538134 C12.3509275,19.6305422 12.350901,19.7548523 12.2727982,19.831555 L11.1414214,20.9424677 C11.0632772,21.0191991 10.9366786,21.0191558 10.8585786,20.9424677 L9.72720184,19.831555 C9.64907249,19.7548262 9.64909901,19.6305162 9.72720184,19.5538134 L10.8585786,18.4429008 C10.9367228,18.3661693 11.0633214,18.3662127 11.1414214,18.4429008 Z M18.4058686,7.69013119 C21.4542222,8.01129506 23.8484227,10.4778336 23.9923364,13.5096207 C24.1379027,16.4013008 22.1942615,18.8883391 19.4819748,19.6498841 C19.8659881,19.34816 20.2101412,18.9994871 20.5077975,18.6129529 C20.8974459,18.1143203 21.2050631,17.5581533 21.4199068,16.9645887 C21.4804679,16.798083 21.5327944,16.6290278 21.5768045,16.4580454 C22.1412054,15.7046346 22.4747011,14.775455 22.4747011,13.7793983 C22.4747011,11.3334142 20.5240111,9.34810235 18.0618382,9.23665268 L17.8432969,9.2317178 L17.7909646,9.2317178 C17.6339679,9.2317178 17.4638881,9.18033158 17.3592236,9.07755914 C17.2650255,9.03645016 17.2126933,8.92134503 17.1687342,8.82432785 L17.1368115,8.75639526 L17.1368115,8.70500904 C16.4303261,6.3412429 14.2585377,4.68403729 11.7989218,4.63265107 C8.66811447,4.53226868 6.09898018,6.88308405 5.87145663,9.90142328 L5.8592113,10.1181301 L5.8592113,10.1695163 C5.81163652,10.5081982 5.58025012,10.8044122 5.25351758,10.8554702 L5.1527259,10.8632303 L4.99572915,10.8632303 C2.87627296,10.9660027 1.29322236,12.7259808 1.39788686,14.8199693 C1.4992806,16.8485206 3.19683356,18.3586558 5.22973343,18.3576227 L5.42747022,18.3527719 L7.16751759,18.3527719 C7.61234172,18.3527719 7.99175055,18.725322 7.99175055,19.1492584 C7.99175055,19.5405842 7.65731959,19.8881253 7.26629263,19.9392776 L7.16751759,19.9457448 L5.42747022,19.9457448 C2.91552215,19.9457448 0.678318401,18.1729202 0.154995886,15.7706144 C-0.564572572,12.8801395 1.29322236,9.98966455 4.2369115,9.3473368 C4.56398807,6.67525333 6.35636769,4.42710618 8.92064801,3.46361455 C12.7409024,2.06334004 16.9928978,3.93893709 18.4058686,7.69013119 Z M17.374985,12.0827841 C17.9101412,12.0827841 18.4316256,12.1892229 18.9238131,12.3982651 L20.4999932,13.0685423 L20.4999932,15.0841686 C20.5009615,15.5856779 20.415024,16.0795159 20.243149,16.5522579 L20.243149,16.5541757 C20.0722506,17.0269178 19.82811,17.4689747 19.5175631,17.865963 L19.5117037,17.8736342 C19.2011568,18.2744581 18.8310397,18.622542 18.4081881,18.9054201 C18.086899,19.1202157 17.7402193,19.2861069 17.3740084,19.4011759 C17.0058443,19.2861069 16.6581881,19.1192568 16.3359225,18.9025434 C15.9130709,18.6187064 15.5419772,18.2715814 15.2324068,17.8688397 L15.2285006,17.8630862 C14.9199068,17.4670569 14.6777193,17.0269178 14.5077975,16.5551347 L14.5058443,16.551299 C14.3349459,16.0814337 14.2490084,15.5875957 14.2499767,15.0860864 L14.2499767,13.0685423 L15.8251803,12.3982651 C16.3173678,12.1892229 16.8388522,12.0827841 17.374985,12.0827841 Z M8.8,15.7649938 C8.9105,15.7649938 9,15.8529127 9,15.9613783 L9,17.5324545 C9,17.6409692 8.91045,17.728839 8.8,17.728839 L7.2,17.728839 C7.0895,17.728839 7,17.6409201 7,17.5324545 L7,15.9613783 C7,15.8528636 7.08955,15.7649938 7.2,15.7649938 L8.8,15.7649938 Z M11.8,15.7649938 C11.9105,15.7649938 12,15.8529127 12,15.9613783 L12,17.5324545 C12,17.6409692 11.91045,17.728839 11.8,17.728839 L10.2,17.728839 C10.0895,17.728839 10,17.6409201 10,17.5324545 L10,15.9613783 C10,15.8528636 10.08955,15.7649938 10.2,15.7649938 L11.8,15.7649938 Z M18.7802635,14.6033523 L18.7450148,14.6486751 L17.4092601,16.3693824 L16.0050052,14.6783424 C15.936505,14.559673 15.7652544,14.5300056 15.6282539,14.6190077 C15.5108249,14.669866 15.468886,14.7861137 15.5240057,14.89302 L15.5597536,14.9453487 L17.1352592,16.903395 C17.2037594,16.9627297 17.2722597,16.9923971 17.37501,16.9923971 C17.4572103,16.9923971 17.5394106,16.9734099 17.5865388,16.9354357 L17.6147609,16.903395 L19.1902664,14.9156814 C19.2930168,14.7970119 19.2587666,14.6486751 19.1217662,14.5893403 C19.0043372,14.5130528 18.8617448,14.523951 18.7802635,14.6033523 Z M8.8,12.819226 C8.9105,12.819226 9,12.9071449 9,13.0156105 L9,14.5866867 C9,14.6952014 8.91045,14.7830712 8.8,14.7830712 L7.2,14.7830712 C7.0895,14.7830712 7,14.6951523 7,14.5866867 L7,13.0156105 C7,12.9070958 7.08955,12.819226 7.2,12.819226 L8.8,12.819226 Z M11.8,12.819226 C11.9105,12.819226 12,12.9071449 12,13.0156105 L12,14.5866867 C12,14.6952014 11.91045,14.7830712 11.8,14.7830712 L10.2,14.7830712 C10.0895,14.7830712 10,14.6951523 10,14.5866867 L10,13.0156105 C10,12.9070958 10.08955,12.819226 10.2,12.819226 L11.8,12.819226 Z M8.8,9.87345821 C8.9105,9.87345821 9,9.9613771 9,10.0698427 L9,11.6409189 C9,11.7494336 8.91045,11.8373034 8.8,11.8373034 L7.2,11.8373034 C7.0895,11.8373034 7,11.7493845 7,11.6409189 L7,10.0698427 C7,9.96132801 7.08955,9.87345821 7.2,9.87345821 L8.8,9.87345821 Z M11.8,9.87345821 C11.9105,9.87345821 12,9.9613771 12,10.0698427 L12,11.6409189 C12,11.7494336 11.91045,11.8373034 11.8,11.8373034 L10.2,11.8373034 C10.0895,11.8373034 10,11.7493845 10,11.6409189 L10,10.0698427 C10,9.96132801 10.08955,9.87345821 10.2,9.87345821 L11.8,9.87345821 Z M14.8,9.87345821 C14.9105,9.87345821 15,9.9613771 15,10.0698427 L14.999,11.412 L13.999,11.837 L13.2,11.8373034 C13.0895,11.8373034 13,11.7493845 13,11.6409189 L13,10.0698427 C13,9.96132801 13.08955,9.87345821 13.2,9.87345821 L14.8,9.87345821 Z M17.8,9.87345821 C17.9105,9.87345821 18,9.9613771 18,10.0698427 L17.9998572,10.8928238 C17.7923552,10.8678704 17.5836701,10.8553808 17.374985,10.8553808 C16.9122786,10.8553808 16.449141,10.916782 15.9990414,11.0395845 L16,10.0698427 C16,9.96132801 16.08955,9.87345821 16.2,9.87345821 L17.8,9.87345821 Z"/>
  </g>
</svg>
